<svg width="50" height="49" viewBox="0 0 50 49" fill="none" xmlns="http://www.w3.org/2000/svg">
<path d="M25.0912 7.58789C15.7626 7.58789 8.16602 15.1845 8.16602 24.5131C8.16602 33.8451 15.7626 41.4382 25.0912 41.4382C34.4233 41.4382 42.0164 33.8451 42.0164 24.5131C42.0164 15.1845 34.4233 7.58789 25.0912 7.58789ZM25.0912 39.0199C24.616 39.0199 24.1443 38.9987 23.669 38.9494C23.1973 38.9037 22.7291 38.8333 22.2609 38.7418C21.7963 38.6502 21.3351 38.5341 20.881 38.3968C20.4269 38.2595 19.9798 38.0976 19.5398 37.9145C19.0998 37.735 18.6738 37.5308 18.2549 37.309C17.836 37.0837 17.4277 36.8408 17.0334 36.5768C16.6356 36.3128 16.2555 36.0277 15.8894 35.7285C15.5233 35.4257 15.1712 35.1089 14.8333 34.771C14.4989 34.4365 14.1785 34.0845 13.8793 33.7184C13.5766 33.3488 13.295 32.9686 13.0309 32.5743C12.7669 32.1766 12.5205 31.7717 12.2987 31.3528C12.0734 30.9339 11.8728 30.5045 11.6897 30.0644C11.5067 29.6279 11.3483 29.1809 11.211 28.7232C11.0702 28.2691 10.9575 27.8115 10.8625 27.3433C10.771 26.8786 10.7006 26.4069 10.6548 25.9352C10.609 25.4635 10.5844 24.9883 10.5844 24.5131C10.5844 24.0378 10.609 23.5661 10.6548 23.0909C10.7006 22.6192 10.771 22.151 10.8625 21.6828C10.9575 21.2181 11.0702 20.757 11.211 20.3029C11.3483 19.8488 11.5067 19.4017 11.6897 18.9617C11.8728 18.5217 12.0734 18.0957 12.2987 17.6768C12.5205 17.2579 12.7669 16.8496 13.0309 16.4553C13.295 16.0575 13.5766 15.6773 13.8793 15.3112C14.1785 14.9451 14.4989 14.5931 14.8333 14.2552C15.1712 13.9207 15.5233 13.6004 15.8894 13.3012C16.2555 12.9985 16.6356 12.7168 17.0334 12.4528C17.4277 12.1888 17.836 11.9424 18.2549 11.7206C18.6738 11.4953 19.0998 11.2947 19.5398 11.1116C19.9798 10.9286 20.4269 10.7702 20.881 10.6329C21.3351 10.4921 21.7963 10.3794 22.2609 10.2844C22.7291 10.1928 23.1973 10.1224 23.669 10.0767C24.1443 10.0309 24.616 10.0063 25.0912 10.0063C25.5664 10.0063 26.0416 10.0309 26.5134 10.0767C26.9851 10.1224 27.4568 10.1928 27.9214 10.2844C28.3896 10.3794 28.8473 10.4921 29.3014 10.6329C29.759 10.7702 30.2061 10.9286 30.6426 11.1116C31.0826 11.2947 31.5121 11.4953 31.931 11.7206C32.3499 11.9424 32.7547 12.1888 33.1525 12.4528C33.5467 12.7168 33.9269 12.9985 34.2965 13.3012C34.6626 13.6004 35.0147 13.9207 35.3491 14.2552C35.687 14.5931 36.0038 14.9451 36.3066 15.3112C36.6058 15.6773 36.8909 16.0575 37.155 16.4553C37.419 16.8496 37.6619 17.2579 37.8872 17.6768C38.1089 18.0957 38.3131 18.5217 38.4926 18.9617C38.6757 19.4017 38.8376 19.8488 38.9749 20.3029C39.1122 20.757 39.2284 21.2181 39.3199 21.6828C39.4114 22.151 39.4818 22.6192 39.5276 23.0909C39.5769 23.5661 39.598 24.0378 39.598 24.5131C39.598 24.9883 39.5733 25.4635 39.5276 25.9352C39.4818 26.4069 39.4114 26.8786 39.3164 27.3433C39.2248 27.808 39.1087 28.2691 38.9714 28.7232C38.8341 29.1773 38.6722 29.6244 38.4926 30.0644C38.3096 30.5009 38.1054 30.9304 37.8836 31.3493C37.6583 31.7682 37.4154 32.1766 37.1514 32.5708C36.8874 32.9651 36.6023 33.3453 36.3031 33.7149C36.0003 34.081 35.6835 34.433 35.3456 34.7674C35.0111 35.1054 34.6591 35.4222 34.293 35.7249C33.9234 36.0242 33.5432 36.3093 33.149 36.5733C32.7547 36.8373 32.3463 37.0802 31.9274 37.3055C31.5085 37.5273 31.0791 37.7315 30.6426 37.9145C30.2025 38.094 29.7555 38.256 29.3014 38.3933C28.8473 38.5305 28.3861 38.6467 27.9214 38.7382C27.4568 38.8333 26.9851 38.9037 26.5134 38.9494C26.0416 38.9952 25.5664 39.0199 25.0912 39.0199Z" fill="#9E9E9E"/>
<path d="M33.7395 20.7133L28.5296 19.9213L26.1781 14.9332C25.7838 14.0848 24.4004 14.0848 24.0026 14.9332L21.6511 19.9213L16.4412 20.7133C16.2194 20.7521 16.0223 20.8436 15.8498 20.9879C15.6808 21.1358 15.5576 21.3153 15.4872 21.53C15.4168 21.7448 15.4027 21.963 15.452 22.1813C15.5013 22.403 15.6034 22.5931 15.7618 22.7586L19.5636 26.659L18.673 32.1751C18.6308 32.404 18.6554 32.6257 18.7434 32.8405C18.8314 33.0552 18.9722 33.2312 19.1588 33.365C19.3489 33.4987 19.5601 33.5691 19.7924 33.5832C20.0248 33.5938 20.2395 33.5445 20.4437 33.4283L25.0904 30.8691L29.7406 33.4283C29.9201 33.5304 30.1137 33.5797 30.3214 33.5832C30.5749 33.5797 30.8072 33.5058 31.0149 33.3615C31.205 33.2312 31.3458 33.0587 31.4373 32.8405C31.5253 32.6257 31.55 32.404 31.5077 32.1751L30.6206 26.659L34.4224 22.7586C34.5773 22.5931 34.6794 22.403 34.7287 22.1813C34.778 21.963 34.7674 21.7448 34.6935 21.53C34.6231 21.3153 34.5034 21.1358 34.3309 20.9879C34.1584 20.8436 33.9613 20.7521 33.7395 20.7133ZM28.4557 25.4058C28.1741 25.698 28.0685 26.0394 28.1353 26.4407L28.7303 30.1088L25.6747 28.4296C25.284 28.2079 24.8968 28.2079 24.5095 28.4296L21.454 30.1088L22.0454 26.4407C22.1158 26.0394 22.0102 25.698 21.7286 25.4058L19.1342 22.7586L22.6509 22.22C23.0768 22.1566 23.3831 21.9278 23.5626 21.5371L25.0904 18.295L26.6181 21.5371C26.8012 21.9278 27.1039 22.1566 27.5299 22.22L31.0466 22.7586L28.4557 25.4058Z" fill="#9E9E9E"/>
<path d="M47.1175 25.3829C46.9521 25.1154 46.8676 24.8267 46.8676 24.5134C46.8676 24.2001 46.9521 23.9115 47.1175 23.6475L48.6312 21.2819C48.7826 21.046 48.9093 20.7996 49.0079 20.5356C49.1064 20.2751 49.1768 20.004 49.2191 19.7295C49.2613 19.4514 49.2754 19.1733 49.2613 18.8952C49.2437 18.6171 49.2015 18.3425 49.1275 18.0714C49.0571 17.8004 48.9586 17.5399 48.8318 17.29C48.7051 17.04 48.5538 16.8077 48.3777 16.5894C48.2017 16.3712 48.0081 16.174 47.7899 15.9945C47.5751 15.8185 47.3428 15.6636 47.0929 15.5369L44.6006 14.2485C44.3225 14.1042 44.1042 13.8929 43.9493 13.6219C43.7909 13.3508 43.7205 13.0587 43.7311 12.7454L43.8613 9.95383C43.8895 9.38356 43.8015 8.8344 43.5973 8.30637C43.3931 7.77482 43.0904 7.31015 42.6856 6.90885C42.2843 6.51459 41.8161 6.21537 41.2916 6.01472C40.7635 5.81054 40.2179 5.72254 39.6547 5.74366L36.8631 5.87391C36.5498 5.88799 36.2577 5.81758 35.9831 5.65918C35.712 5.50077 35.5043 5.28603 35.3565 5.00794L34.0716 2.51211C33.9414 2.26569 33.79 2.03336 33.6105 1.81511C33.4344 1.60037 33.2373 1.40324 33.0191 1.22723C32.8008 1.05474 32.565 0.903371 32.315 0.776644C32.0651 0.649916 31.8046 0.55135 31.5371 0.477426C31.266 0.403501 30.9914 0.361259 30.7098 0.347177C30.4317 0.329576 30.1536 0.343658 29.879 0.389421C29.6009 0.431663 29.3334 0.502067 29.0694 0.600632C28.8089 0.699199 28.559 0.822406 28.3231 0.973776L25.961 2.48043C25.697 2.6494 25.4084 2.73388 25.0951 2.7374C24.7818 2.7374 24.4896 2.65644 24.2256 2.49099L21.86 0.973776C21.6241 0.822406 21.3777 0.699199 21.1137 0.600632C20.8532 0.502067 20.5822 0.431663 20.3076 0.389421C20.0295 0.343658 19.7514 0.329576 19.4733 0.347177C19.1952 0.361259 18.9206 0.403501 18.6496 0.477426C18.3785 0.55135 18.118 0.649916 17.8681 0.776644C17.6181 0.903371 17.3858 1.05474 17.1676 1.22723C16.9493 1.40324 16.7522 1.60037 16.5726 1.81511C16.3966 2.03336 16.2417 2.26569 16.115 2.51211L14.8266 5.00794C14.6752 5.27899 14.4676 5.49373 14.1965 5.65214C13.9254 5.80702 13.6333 5.88095 13.3235 5.87391L10.532 5.74366C9.9652 5.71902 9.41957 5.81054 8.89154 6.0112C8.36703 6.21537 7.90236 6.51459 7.49754 6.90885C7.09623 7.31015 6.79349 7.77482 6.58932 8.30637C6.38163 8.8344 6.29362 9.38356 6.32179 9.95383L6.45203 12.7454C6.46611 13.0587 6.39219 13.3508 6.23378 13.6219C6.07889 13.8929 5.86064 14.1042 5.58606 14.2485L3.09023 15.5369C2.84382 15.6636 2.61148 15.8185 2.39323 15.9945C2.1785 16.174 1.98137 16.3712 1.80536 16.5894C1.63287 16.8077 1.4815 17.04 1.35477 17.29C1.22804 17.5399 1.12948 17.8004 1.05555 18.0714C0.981626 18.3425 0.939384 18.6171 0.925302 18.8952C0.907701 19.1733 0.921783 19.4514 0.967546 19.7295C1.00979 20.004 1.08019 20.2751 1.17876 20.5356C1.27732 20.7996 1.40053 21.046 1.5519 21.2819L3.06911 23.6475C3.23456 23.9115 3.31553 24.2001 3.31553 24.5134C3.31553 24.8267 3.23456 25.1154 3.06911 25.3829L1.5519 27.745C1.40053 27.9808 1.27732 28.2308 1.17876 28.4913C1.08019 28.7553 1.00979 29.0228 0.967546 29.3009C0.921783 29.5755 0.907701 29.8536 0.925302 30.1317C0.939384 30.4133 0.981626 30.6879 1.05555 30.9589C1.12948 31.2265 1.22804 31.487 1.35477 31.7369C1.4815 31.9868 1.63287 32.2227 1.80536 32.4409C1.98137 32.6592 2.1785 32.8563 2.39323 33.0323C2.61148 33.2119 2.84382 33.3632 3.09023 33.4935L5.58606 34.7784C5.86064 34.9262 6.07537 35.1339 6.23378 35.4014C6.38867 35.6725 6.46259 35.9611 6.45203 36.2744L6.32179 39.0765C6.30771 39.3546 6.32531 39.6327 6.37107 39.9108C6.41683 40.1854 6.49076 40.4529 6.58932 40.7169C6.69141 40.9774 6.81814 41.2239 6.97303 41.4597C7.12439 41.6921 7.3004 41.9103 7.49754 42.1074C7.69819 42.3046 7.91292 42.4806 8.14878 42.6355C8.38111 42.7868 8.63104 42.9136 8.89154 43.0156C9.15204 43.1177 9.41957 43.1917 9.69767 43.2339C9.97224 43.2797 10.2503 43.2973 10.532 43.2832L13.3235 43.1529C13.6333 43.1459 13.9254 43.2163 14.1965 43.3747C14.4676 43.5296 14.6788 43.7479 14.8266 44.0224L16.115 46.5147C16.2417 46.7647 16.3966 46.997 16.5726 47.2117C16.7522 47.43 16.9493 47.6236 17.1676 47.7996C17.3858 47.9756 17.6181 48.127 17.8681 48.2537C18.118 48.3804 18.3785 48.479 18.6496 48.5494C18.9206 48.6233 19.1952 48.6656 19.4733 48.6832C19.7514 48.6973 20.0295 48.6832 20.3076 48.6409C20.5822 48.5987 20.8532 48.5283 21.1137 48.4297C21.3777 48.3312 21.6241 48.2044 21.86 48.0531L24.2256 46.5394C24.4896 46.3704 24.7782 46.2859 25.0915 46.2859C25.4048 46.2859 25.6935 46.3704 25.961 46.5394L28.3231 48.0531C28.9849 48.479 29.7101 48.6937 30.4986 48.6902C30.8506 48.6937 31.1956 48.6445 31.5335 48.5494C32.0792 48.4051 32.5755 48.1552 33.0191 47.8031C33.4591 47.4476 33.8111 47.0181 34.0716 46.5147L35.3565 44.0224C35.6416 43.4733 36.3034 43.1424 36.8631 43.1529L39.6547 43.2832C40.2179 43.3113 40.767 43.2198 41.2951 43.0156C41.8231 42.8115 42.2878 42.5087 42.6856 42.1074C43.0904 41.7097 43.3931 41.245 43.5973 40.7169C43.8015 40.1889 43.8895 39.6433 43.8613 39.0765L43.7311 36.285C43.7205 35.9717 43.7909 35.6795 43.9493 35.4085C44.1042 35.1339 44.3225 34.9262 44.6006 34.7784L47.0929 33.4935C47.3428 33.3632 47.5751 33.2119 47.7899 33.0323C48.0081 32.8563 48.2017 32.6592 48.3777 32.4409C48.5538 32.2227 48.7051 31.9868 48.8318 31.7369C48.9586 31.487 49.0571 31.2265 49.1275 30.9589C49.2015 30.6879 49.2437 30.4133 49.2613 30.1317C49.2754 29.8536 49.2613 29.5755 49.2191 29.3009C49.1768 29.0228 49.1064 28.7553 49.0079 28.4913C48.9093 28.2308 48.7826 27.9808 48.6312 27.745L47.1175 25.3829ZM45.0828 26.6889L46.6 29.0404C46.7197 29.234 46.7972 29.4382 46.8324 29.6635C46.8676 29.8853 46.8535 30.107 46.7972 30.3253C46.7373 30.5435 46.6388 30.7407 46.498 30.9167C46.3536 31.0927 46.1847 31.2335 45.984 31.3391L43.4882 32.624C43.1467 32.8035 42.8405 33.0253 42.5624 33.2928C42.2843 33.5604 42.0484 33.8596 41.8583 34.194C41.6647 34.5284 41.5239 34.8804 41.4324 35.2571C41.3444 35.6302 41.3056 36.0104 41.3232 36.3941L41.457 39.1857C41.4711 39.6609 41.3127 40.0657 40.9853 40.4072C40.6544 40.7486 40.2496 40.9035 39.7743 40.8683L36.9723 40.7451C36.5886 40.731 36.2084 40.7662 35.8352 40.8578C35.4621 40.9493 35.1065 41.0901 34.7756 41.2837C34.4412 41.4738 34.1385 41.7096 33.8745 41.9842C33.6069 42.2623 33.3816 42.5721 33.2021 42.91L31.9172 45.4059C31.7025 45.8283 31.3646 46.0994 30.9069 46.219C30.4493 46.3387 30.0198 46.2718 29.6185 46.0219L27.267 44.5047C26.9432 44.297 26.5947 44.1386 26.2251 44.0295C25.8554 43.9203 25.4788 43.8675 25.0915 43.8675C24.7078 43.8675 24.3277 43.9203 23.958 44.0295C23.5884 44.1386 23.2399 44.297 22.9161 44.5047L20.5646 46.0219C20.1633 46.2683 19.7338 46.3352 19.2797 46.219C18.8185 46.0994 18.4806 45.8283 18.2659 45.4059L16.981 42.91C16.2558 41.5266 14.8372 40.7029 13.2108 40.7451L10.4088 40.8683C9.93352 40.907 9.5287 40.7522 9.20132 40.4072C8.87394 40.0692 8.71553 39.6644 8.72961 39.1962L8.85986 36.3836C8.87746 35.9999 8.83874 35.6197 8.74721 35.2465C8.65569 34.8734 8.51488 34.5214 8.32479 34.1905C8.13117 33.8561 7.89884 33.5568 7.62074 33.2893C7.34265 33.0253 7.03639 32.8035 6.69493 32.624L4.1991 31.3391C4.00197 31.2335 3.82948 31.0927 3.68867 30.9167C3.54786 30.7407 3.44577 30.5435 3.38945 30.3253C3.32961 30.107 3.31905 29.8853 3.35073 29.6635C3.38593 29.4382 3.46338 29.234 3.58658 29.0404L5.10027 26.6889C5.30797 26.3651 5.46637 26.0166 5.5755 25.6469C5.68111 25.2773 5.73743 24.9006 5.73743 24.5134C5.73743 24.1297 5.68111 23.7495 5.5755 23.3799C5.46637 23.0103 5.30797 22.6618 5.10027 22.3379L3.58658 19.9864C3.32961 19.5851 3.26624 19.1592 3.38593 18.7016C3.50562 18.2404 3.77667 17.9025 4.1991 17.6877L6.69493 16.4029C7.03639 16.2233 7.34617 16.0016 7.62426 15.734C7.90236 15.47 8.13469 15.1673 8.32831 14.8328C8.5184 14.5019 8.65921 14.1464 8.75073 13.7733C8.84226 13.3966 8.87746 13.0199 8.85986 12.6327L8.72961 9.83063C8.71553 9.36244 8.87394 8.95761 9.20132 8.62319C9.53222 8.30285 9.91592 8.11628 10.4088 8.16205L13.2108 8.28173C13.5981 8.29933 13.9747 8.26413 14.3514 8.17261C14.7245 8.08108 15.0801 7.94027 15.411 7.75018C15.7454 7.55657 16.0481 7.32424 16.3121 7.04614C16.5797 6.76804 16.8015 6.45826 16.981 6.1168L18.2659 3.62097C18.3715 3.42384 18.5123 3.25135 18.6883 3.11054C18.8643 2.96973 19.0614 2.86765 19.2797 2.81133C19.4979 2.75148 19.7197 2.74092 19.945 2.7726C20.1668 2.8078 20.3745 2.88525 20.5646 3.00846L22.9161 4.52215C23.2399 4.72984 23.5884 4.88825 23.958 4.99738C24.3277 5.10298 24.7078 5.15931 25.0915 5.15931C25.4788 5.15931 25.8554 5.10298 26.2251 4.99738C26.5947 4.88825 26.9432 4.72984 27.267 4.52215L29.6185 3.00846C29.8122 2.88525 30.0163 2.8078 30.2416 2.7726C30.4634 2.74092 30.6852 2.75148 30.9034 2.81133C31.1217 2.86765 31.3188 2.96973 31.4948 3.11054C31.6708 3.25135 31.8116 3.42384 31.9172 3.62097L33.2021 6.1168C33.3816 6.45826 33.6034 6.76804 33.871 7.04614C34.135 7.32424 34.4377 7.56009 34.7721 7.75018C35.1065 7.94379 35.4586 8.0846 35.8352 8.17261C36.2084 8.26413 36.5886 8.29933 36.9723 8.28173L39.7743 8.16205C40.2496 8.12684 40.6509 8.28173 40.9853 8.62319C41.3127 8.95761 41.4676 9.36244 41.457 9.83063L41.3232 12.6327C41.3056 13.0199 41.3444 13.3966 41.4324 13.7733C41.5239 14.1464 41.6647 14.5019 41.8583 14.8328C42.0484 15.1673 42.2843 15.47 42.5624 15.734C42.8405 16.0016 43.1467 16.2233 43.4882 16.4029L45.984 17.6877C46.4064 17.9025 46.6775 18.2404 46.7972 18.7016C46.9204 19.1592 46.8535 19.5851 46.6 19.9864L45.0828 22.3379C44.8751 22.6618 44.7167 23.0103 44.6111 23.3799C44.502 23.7495 44.4492 24.1297 44.4492 24.5134C44.4492 24.9006 44.502 25.2773 44.6111 25.6469C44.7167 26.0166 44.8751 26.3651 45.0828 26.6889Z" fill="#9E9E9E"/>
</svg>
