<svg width="51" height="41" viewBox="0 0 51 41" fill="none" xmlns="http://www.w3.org/2000/svg">
<path fill-rule="evenodd" clip-rule="evenodd" d="M0.669922 3.93535C0.669922 1.95886 2.27731 0.357422 4.26273 0.357422H47.3705C49.3529 0.357422 50.9633 1.95886 50.9633 3.93535V13.4755H48.5671V3.93535C48.5671 3.27751 48.0313 2.74171 47.3705 2.74171H4.26273C3.59894 2.74171 3.06314 3.27751 3.06314 3.93535V32.5588C3.06314 33.2166 3.59894 33.7524 4.26273 33.7524H21.0272V36.1367H4.26273C2.27731 36.1367 0.669922 34.5353 0.669922 32.5588V3.93535Z" fill="#9E9E9E"/>
<path fill-rule="evenodd" clip-rule="evenodd" d="M1.86621 8.70703H49.7634V11.0913H1.86621V8.70703Z" fill="#9E9E9E"/>
<path fill-rule="evenodd" clip-rule="evenodd" d="M7.85254 25.4023H19.8276V27.7866H7.85254V25.4023Z" fill="#9E9E9E"/>
<path fill-rule="evenodd" clip-rule="evenodd" d="M37.7918 17.0542C31.8385 17.0542 27.0134 21.8615 27.0134 27.788C27.0134 33.7175 31.8385 38.5248 37.7918 38.5248C43.7421 38.5248 48.5673 33.7175 48.5673 27.788C48.5673 21.8615 43.7421 17.0542 37.7918 17.0542ZM24.6172 27.788C24.6172 20.5428 30.5169 14.6699 37.7918 14.6699C45.0667 14.6699 50.9635 20.5428 50.9635 27.788C50.9635 35.0361 45.0667 40.909 37.7918 40.909C30.5169 40.909 24.6172 35.0361 24.6172 27.788Z" fill="#9E9E9E"/>
<path fill-rule="evenodd" clip-rule="evenodd" d="M36.9316 30.2752L42.2063 22.9199L44.153 24.307L38.167 32.6565C37.9794 32.9185 37.6937 33.0911 37.3752 33.1417C37.0567 33.1893 36.7322 33.109 36.4732 32.9155L31.6838 29.3376L33.1215 27.4295L36.9316 30.2752Z" fill="#9E9E9E"/>
</svg>
