<svg width="14" height="15" viewBox="0 0 14 15" fill="none" xmlns="http://www.w3.org/2000/svg">
<g clip-path="url(#clip0_146_3262)">
<path d="M7.51915 0.906252L12.1858 3.40625C12.3802 3.50974 12.5438 3.66927 12.6582 3.8669C12.7725 4.06454 12.8332 4.29245 12.8333 4.525V10.4813C12.8332 10.7138 12.7725 10.9417 12.6582 11.1394C12.5438 11.337 12.3802 11.4965 12.1858 11.6L7.51915 14.1C7.35707 14.1869 7.17832 14.2321 6.99707 14.2321C6.81583 14.2321 6.63707 14.1869 6.47499 14.1L1.80832 11.6C1.61415 11.4952 1.45118 11.3343 1.3378 11.1355C1.22442 10.9367 1.16514 10.708 1.16665 10.475V4.525C1.16677 4.29245 1.22743 4.06454 1.34182 3.8669C1.4562 3.66927 1.61978 3.50974 1.81415 3.40625L6.48082 0.906252C6.64215 0.820362 6.81984 0.775665 6.99999 0.775665C7.18013 0.775665 7.35783 0.820362 7.51915 0.906252V0.906252Z" stroke="#424242" stroke-linecap="round" stroke-linejoin="round"/>
<path d="M1.35333 3.85001L7 6.87501L12.6467 3.85001" stroke="#424242" stroke-linecap="round" stroke-linejoin="round"/>
<path d="M7 14.225V6.875" stroke="#424242" stroke-linecap="round" stroke-linejoin="round"/>
<path d="M4.08331 2.1875L9.91665 5.3125" stroke="#424242" stroke-linecap="round" stroke-linejoin="round"/>
</g>
<defs>
<clipPath id="clip0_146_3262">
<rect width="14" height="15" fill="white"/>
</clipPath>
</defs>
</svg>
