<svg width="48" height="54" viewBox="0 0 48 54" fill="none" xmlns="http://www.w3.org/2000/svg">
<path d="M47.055 13.6847C47.055 13.3777 46.8918 13.0956 46.6263 12.9435L24.3829 0.11408C24.1174 -0.0380265 23.7911 -0.0380265 23.5256 0.11408L9.11701 8.42458C9.11701 8.42458 9.11701 8.42735 9.11424 8.42735L1.28494 12.9407C1.28494 12.9435 1.28218 12.9435 1.28218 12.9435C1.24899 12.9629 1.2158 12.985 1.18538 13.0071C0.977966 13.1675 0.853516 13.4192 0.853516 13.6847C0.853516 13.6902 0.853516 13.6985 0.853516 13.704V39.3435C0.853516 39.6477 1.01668 39.9298 1.27941 40.0819L23.5256 52.9114C23.6583 52.9888 23.8049 53.0275 23.9542 53.0275C24.1008 53.0275 24.2474 52.9888 24.3801 52.9114L46.6263 40.0819C46.8918 39.9298 47.055 39.6477 47.055 39.3435V13.6847ZM37.9258 19.4398V23.0267L32.804 25.9776V22.3934L37.9258 19.4398ZM9.56226 10.142L30.0938 21.9841L23.9542 25.524L3.42272 13.6847L9.56226 10.142ZM16.537 6.11811L37.0685 17.9602L31.8057 20.9968L11.2741 9.15469L16.537 6.11811ZM23.9542 1.84255L44.4857 13.6847L38.7804 16.9729L18.2489 5.1308L23.9542 1.84255ZM2.5654 15.167L23.0969 27.0064V50.6906L2.5654 38.8513V15.167ZM24.8088 50.6906V27.0064L31.0949 23.3807V27.4599C31.0949 27.7641 31.2581 28.0462 31.5208 28.1983C31.6536 28.2758 31.8029 28.3145 31.9495 28.3145C32.096 28.3145 32.2454 28.2758 32.3781 28.1983L39.2091 24.2602C39.4746 24.1081 39.6377 23.826 39.6377 23.519V18.4553L45.3431 15.1643V38.8485L24.8088 50.6906ZM35.058 32.886C34.7925 32.7311 34.4661 32.7311 34.2006 32.886L27.6794 36.6471C27.4139 36.7992 27.2508 37.0813 27.2508 37.3855V44.9106C27.2508 45.2148 27.4139 45.4969 27.6794 45.6518C27.8122 45.7292 27.9588 45.7652 28.1053 45.7652C28.2547 45.7652 28.4013 45.7264 28.534 45.6518L35.058 41.8879C35.3207 41.7357 35.4838 41.4537 35.4838 41.1467V33.6244C35.4838 33.3201 35.3207 33.0381 35.058 32.886ZM28.9627 43.431V37.8806L33.772 35.1067V40.6544L28.9627 43.431ZM10.1956 39.7722C10.0379 40.046 9.75032 40.2009 9.45164 40.2009C9.30783 40.2009 9.15849 40.1621 9.02574 40.0847L4.58702 37.5238C4.17772 37.2887 4.03667 36.766 4.27175 36.3567C4.50959 35.9474 5.03228 35.8092 5.44158 36.0442L9.8803 38.6051C10.2896 38.8402 10.4306 39.3629 10.1956 39.7722Z" fill="#9E9E9E"/>
</svg>
