<svg width="16" height="18" viewBox="0 0 16 18" fill="none" xmlns="http://www.w3.org/2000/svg">
<path d="M1.33333 18C0.977778 18 0.666667 17.8714 0.4 17.6143C0.133333 17.3571 0 17.0571 0 16.7143V5.35714C0 5.01429 0.133333 4.71429 0.4 4.45714C0.666667 4.2 0.977778 4.07143 1.33333 4.07143H3.77778C3.77778 2.94286 4.17037 1.98214 4.95556 1.18929C5.74074 0.396429 6.71852 0 7.88889 0C9.05926 0 10.0741 0.396429 10.9333 1.18929C11.7926 1.98214 12.2222 2.94286 12.2222 4.07143H14.6667C15.0222 4.07143 15.3333 4.2 15.6 4.45714C15.8667 4.71429 16 5.01429 16 5.35714V16.7143C16 17.0571 15.8667 17.3571 15.6 17.6143C15.3333 17.8714 15.0222 18 14.6667 18H1.33333ZM1.33333 16.7143H14.6667V5.35714H1.33333V16.7143ZM8 10.5C9.17037 10.5 10.1852 10.0857 11.0444 9.25714C11.9037 8.42857 12.3333 7.45 12.3333 6.32143H11C11 7.10714 10.7037 7.78571 10.1111 8.35714C9.51852 8.92857 8.81481 9.21429 8 9.21429C7.18519 9.21429 6.48148 8.92857 5.88889 8.35714C5.2963 7.78571 5 7.10714 5 6.32143H3.66667C3.66667 7.45 4.0963 8.42857 4.95556 9.25714C5.81481 10.0857 6.82963 10.5 8 10.5ZM5.11111 4.07143H10.8889C10.8889 3.28571 10.6111 2.625 10.0556 2.08929C9.5 1.55357 8.81481 1.28571 8 1.28571C7.18519 1.28571 6.5 1.55357 5.94444 2.08929C5.38889 2.625 5.11111 3.28571 5.11111 4.07143ZM1.33333 16.7143V5.35714V16.7143Z" fill="#263742"/>
</svg>
