<svg width="15" height="18" viewBox="0 0 15 18" fill="none" xmlns="http://www.w3.org/2000/svg">
<path d="M8.71323 18L8.49265 15.525H7.61029C5.50735 15.525 3.71324 14.7675 2.22794 13.2525C0.742647 11.7375 0 9.9075 0 7.7625C0 5.6175 0.746323 3.7875 2.23897 2.2725C3.73162 0.7575 5.53676 0 7.65441 0C8.69853 0 9.66544 0.19125 10.5551 0.57375C11.4449 0.95625 12.2206 1.4925 12.8824 2.1825C13.5441 2.8725 14.0625 3.68625 14.4375 4.62375C14.8125 5.56125 15 6.585 15 7.695C15 8.685 14.8566 9.675 14.5699 10.665C14.2831 11.655 13.8676 12.6 13.3235 13.5C12.7794 14.4 12.1176 15.2325 11.3382 15.9975C10.5588 16.7625 9.68382 17.43 8.71323 18ZM9.81618 15.57C11.0221 14.535 11.9669 13.3162 12.6507 11.9137C13.3346 10.5112 13.6765 9.105 13.6765 7.695C13.6765 5.835 13.1066 4.3125 11.9669 3.1275C10.8272 1.9425 9.38971 1.35 7.65441 1.35C5.88971 1.35 4.39338 1.97625 3.16544 3.22875C1.9375 4.48125 1.32353 5.9925 1.32353 7.7625C1.32353 9.5325 1.9375 11.0437 3.16544 12.2963C4.39338 13.5487 5.875 14.175 7.61029 14.175H9.81618V15.57ZM7.65441 12.9825C7.88971 12.9825 8.08824 12.9 8.25 12.735C8.41177 12.57 8.49265 12.3675 8.49265 12.1275C8.49265 11.8875 8.41177 11.685 8.25 11.52C8.08824 11.355 7.88971 11.2725 7.65441 11.2725C7.41912 11.2725 7.22059 11.355 7.05882 11.52C6.89706 11.685 6.81618 11.8875 6.81618 12.1275C6.81618 12.3675 6.89706 12.57 7.05882 12.735C7.22059 12.9 7.41912 12.9825 7.65441 12.9825ZM7.05882 9.9225H8.16177C8.16177 9.5475 8.22426 9.23625 8.34926 8.98875C8.47426 8.74125 8.73529 8.415 9.13235 8.01C9.52941 7.605 9.80882 7.23375 9.97059 6.89625C10.1324 6.55875 10.2132 6.195 10.2132 5.805C10.2132 5.13 9.98897 4.575 9.54044 4.14C9.09191 3.705 8.49265 3.4875 7.74265 3.4875C7.125 3.4875 6.57353 3.6525 6.08823 3.9825C5.60294 4.3125 5.24265 4.7625 5.00735 5.3325L6.02206 5.76C6.18382 5.37 6.40809 5.08125 6.69485 4.89375C6.98162 4.70625 7.30882 4.6125 7.67647 4.6125C8.11765 4.6125 8.46323 4.72125 8.71323 4.93875C8.96323 5.15625 9.08824 5.445 9.08824 5.805C9.08824 6.09 9.00735 6.37875 8.84559 6.67125C8.68382 6.96375 8.39706 7.3275 7.98529 7.7625C7.58824 8.1825 7.33456 8.52 7.22426 8.775C7.11397 9.03 7.05882 9.4125 7.05882 9.9225Z" fill="#616161"/>
</svg>
