<svg width="19" height="19" viewBox="0 0 19 19" fill="none" xmlns="http://www.w3.org/2000/svg">
<circle cx="9.5" cy="9.5" r="9.5" fill="#21725E"/>
<path d="M9.5 2C9.2546 2 9.00921 2.01219 8.76463 2.03657C8.52086 2.06013 8.2779 2.09588 8.03657 2.14382C7.79605 2.19177 7.55796 2.2519 7.32313 2.3234C7.08749 2.3941 6.85672 2.47698 6.63001 2.57124C6.4033 2.66468 6.18147 2.7695 5.96452 2.8857C5.74837 3.00108 5.53792 3.12784 5.33315 3.26436C5.1292 3.40087 4.93174 3.54632 4.74242 3.70233C4.55228 3.85834 4.37026 4.02329 4.19718 4.19637C4.02329 4.37026 3.85834 4.55228 3.70233 4.74242C3.54632 4.93174 3.40087 5.1292 3.26436 5.33315C3.12784 5.53711 3.00108 5.74756 2.8857 5.96452C2.7695 6.18147 2.66468 6.4033 2.57124 6.63001C2.47698 6.85672 2.3941 7.08749 2.3234 7.32313C2.2519 7.55796 2.19177 7.79605 2.14382 8.03657C2.09588 8.2779 2.06013 8.52004 2.03657 8.76463C2.01219 9.00921 2 9.2546 2 9.5C2 9.7454 2.01219 9.99079 2.03657 10.2354C2.06013 10.48 2.09588 10.7221 2.14382 10.9634C2.19177 11.204 2.2519 11.442 2.3234 11.6769C2.3941 11.9125 2.47698 12.1433 2.57124 12.37C2.66468 12.5967 2.7695 12.8185 2.8857 13.0355C3.00108 13.2524 3.12784 13.4629 3.26436 13.6668C3.40087 13.8708 3.54632 14.0683 3.70233 14.2576C3.85834 14.4477 4.02329 14.6297 4.19637 14.8036C4.37026 14.9767 4.55228 15.1417 4.74242 15.2977C4.93174 15.4537 5.1292 15.5991 5.33315 15.7356C5.53711 15.8722 5.74756 15.9989 5.96452 16.1143C6.18147 16.2305 6.4033 16.3353 6.63001 16.4288C6.85672 16.523 7.08749 16.6059 7.32313 16.6766C7.55796 16.7481 7.79605 16.8082 8.03657 16.8562C8.2779 16.9041 8.52004 16.9399 8.76463 16.9634C9.00921 16.9878 9.2546 17 9.5 17C9.7454 17 9.99079 16.9878 10.2354 16.9634C10.48 16.9399 10.7221 16.9041 10.9634 16.8562C11.204 16.8082 11.442 16.7481 11.6769 16.6766C11.9125 16.6059 12.1433 16.523 12.37 16.4288C12.5967 16.3353 12.8185 16.2305 13.0355 16.1143C13.2524 15.9989 13.4629 15.8722 13.6668 15.7356C13.8708 15.5991 14.0683 15.4537 14.2576 15.2977C14.4477 15.1417 14.6297 14.9767 14.8036 14.8036C14.9767 14.6297 15.1417 14.4477 15.2977 14.2576C15.4537 14.0683 15.5991 13.8708 15.7356 13.6668C15.8722 13.4621 15.9989 13.2524 16.1143 13.0355C16.2305 12.8185 16.3353 12.5967 16.4288 12.37C16.523 12.1433 16.6059 11.9125 16.6766 11.6769C16.7481 11.442 16.8082 11.204 16.8562 10.9634C16.9041 10.7221 16.9399 10.4791 16.9634 10.2354C16.9878 9.99079 17 9.7454 17 9.5C17 9.2546 16.987 9.00921 16.9634 8.76544C16.9391 8.52086 16.9025 8.2779 16.8546 8.03738C16.8066 7.79686 16.7465 7.55878 16.675 7.32394C16.6035 7.08911 16.5206 6.85834 16.4271 6.63082C16.3329 6.40412 16.2281 6.1831 16.1119 5.96614C15.9957 5.75 15.8697 5.53955 15.7332 5.33559C15.5967 5.13082 15.4504 4.93418 15.2952 4.74404C15.1392 4.55471 14.9743 4.3727 14.8004 4.19962C14.6273 4.02573 14.4453 3.86078 14.256 3.70477C14.0658 3.54957 13.8692 3.4033 13.6644 3.26679C13.4605 3.13028 13.25 3.00433 13.0339 2.88814C12.8169 2.77194 12.5959 2.66712 12.3692 2.57286C12.1417 2.47941 11.9109 2.39653 11.6761 2.32503C11.4412 2.25352 11.2031 2.19339 10.9626 2.14545C10.7221 2.09751 10.4791 2.06094 10.2346 2.03657C9.99079 2.013 9.7454 2 9.5 2ZM9.5 16.3386C9.27573 16.3386 9.05228 16.328 8.82963 16.3061C8.60699 16.2841 8.38516 16.2508 8.16576 16.2077C7.94637 16.1639 7.72941 16.1094 7.5149 16.0444C7.30038 15.9794 7.08992 15.9038 6.88272 15.8185C6.67633 15.7324 6.474 15.6365 6.27654 15.5317C6.07909 15.4261 5.88651 15.3107 5.70043 15.1863C5.51436 15.062 5.33478 14.9288 5.1617 14.7866C4.98862 14.6444 4.82286 14.494 4.66441 14.3356C4.50596 14.1771 4.35563 14.0114 4.21343 13.8383C4.07123 13.6652 3.93797 13.4856 3.81365 13.2996C3.68933 13.1135 3.57394 12.9217 3.46831 12.7235C3.36349 12.526 3.26761 12.3237 3.18147 12.1173C3.09615 11.9101 3.02059 11.6996 2.95558 11.4851C2.89057 11.2706 2.83613 11.0536 2.79225 10.8342C2.74919 10.6148 2.71587 10.393 2.69393 10.1704C2.67199 9.94772 2.66143 9.72427 2.66143 9.5C2.66143 9.27573 2.67199 9.05228 2.69393 8.82963C2.71587 8.60699 2.74919 8.38516 2.79225 8.16576C2.83613 7.94637 2.89057 7.72941 2.95558 7.5149C3.02059 7.30038 3.09615 7.08992 3.18147 6.88272C3.26761 6.67633 3.36349 6.474 3.46831 6.27654C3.57394 6.07828 3.68933 5.88651 3.81365 5.70043C3.93797 5.51436 4.07123 5.33478 4.21343 5.1617C4.35563 4.98862 4.50596 4.82286 4.66441 4.66441C4.82286 4.50596 4.98862 4.35563 5.1617 4.21343C5.33478 4.07123 5.51436 3.93797 5.70043 3.81365C5.88651 3.68933 6.07828 3.57394 6.27654 3.46831C6.474 3.36268 6.67633 3.26761 6.88272 3.18147C7.08992 3.09615 7.30038 3.02059 7.5149 2.95558C7.72941 2.89057 7.94637 2.83613 8.16576 2.79225C8.38516 2.74919 8.60699 2.71587 8.82963 2.69393C9.05228 2.67199 9.27573 2.66143 9.5 2.66143C9.72427 2.66143 9.94772 2.67199 10.1704 2.69393C10.393 2.71587 10.6148 2.74919 10.8342 2.79225C11.0536 2.83613 11.2706 2.89057 11.4851 2.95558C11.6996 3.02059 11.9101 3.09615 12.1173 3.18147C12.3237 3.26761 12.526 3.36268 12.7235 3.46831C12.9217 3.57394 13.1135 3.68933 13.2996 3.81365C13.4856 3.93797 13.6652 4.07123 13.8383 4.21343C14.0114 4.35563 14.1771 4.50596 14.3356 4.66441C14.494 4.82286 14.6444 4.98862 14.7866 5.1617C14.9288 5.33478 15.062 5.51436 15.1863 5.70043C15.3107 5.88651 15.4261 6.07828 15.5317 6.27654C15.6365 6.474 15.7324 6.67551 15.8185 6.88272C15.9038 7.08992 15.9794 7.30038 16.0444 7.5149C16.1094 7.72941 16.1639 7.94637 16.2077 8.16576C16.2508 8.38516 16.2841 8.60699 16.3061 8.82963C16.328 9.05228 16.3386 9.27573 16.3386 9.5C16.3386 9.72346 16.3272 9.94691 16.3053 10.1704C16.2833 10.393 16.25 10.614 16.2061 10.8334C16.1622 11.0528 16.1078 11.2698 16.0428 11.4843C15.9778 11.6988 15.9022 11.9093 15.8161 12.1157C15.7308 12.3229 15.6349 12.5252 15.5293 12.7218C15.4236 12.9193 15.3082 13.1111 15.1839 13.2979C15.0596 13.484 14.9263 13.6636 14.7841 13.8367C14.6419 14.0098 14.4916 14.1755 14.334 14.3332C14.1755 14.4916 14.0098 14.6419 13.8367 14.7841C13.6636 14.9263 13.484 15.0596 13.2979 15.1839C13.1119 15.3082 12.9201 15.4236 12.7226 15.5293C12.5252 15.6349 12.3229 15.7308 12.1157 15.8161C11.9093 15.9022 11.6988 15.9778 11.4843 16.0428C11.2706 16.1078 11.0536 16.1622 10.8334 16.2061C10.614 16.25 10.393 16.2833 10.1704 16.3053C9.94772 16.3272 9.72427 16.3386 9.5 16.3386Z" fill="#FCFDFD"/>
<path d="M8.75144 9.50085V4.34786C8.75144 4.30171 8.74221 4.25726 8.72282 4.21538C8.70344 4.17265 8.67667 4.13504 8.64159 4.10256C8.60651 4.06923 8.56589 4.04444 8.51973 4.0265C8.47358 4.0094 8.42557 4 8.37572 4C8.32587 4 8.27787 4.0094 8.23171 4.0265C8.18648 4.04444 8.14586 4.06923 8.10985 4.10256C8.07477 4.13504 8.048 4.17265 8.02862 4.21538C8.01015 4.25726 8 4.30171 8 4.34786V9.64444C8 9.74103 8.03693 9.82308 8.11078 9.8906L11.3584 12.8983C11.3935 12.9308 11.4341 12.9556 11.4803 12.9735C11.5264 12.9915 11.5744 13 11.6243 13C11.6741 13 11.7221 12.9915 11.7683 12.9735C11.8135 12.9556 11.8541 12.9308 11.8901 12.8983C11.9252 12.8658 11.952 12.8282 11.9714 12.7855C11.9898 12.7427 12 12.6983 12 12.6521C12 12.606 11.9898 12.5615 11.9714 12.5197C11.952 12.4769 11.9252 12.4393 11.8901 12.4068L8.75144 9.50085Z" fill="#FCFDFD"/>
</svg>
