<svg width="25" height="24" viewBox="0 0 25 24" fill="none" xmlns="http://www.w3.org/2000/svg">
<path id="Vector" d="M3.72314 20.3208H11.0462V14.4396H3.72314V20.3208ZM3.72314 13.1327H11.0462V3.33078H3.72314V13.1327ZM12.2668 20.3208H19.5899V10.5189H12.2668V20.3208ZM12.2668 9.21194H19.5899V3.33078H12.2668V9.21194ZM2.50262 23.5881C2.01441 23.5881 1.58723 23.3921 1.22108 23C0.854922 22.6079 0.671844 22.1505 0.671844 21.6277V2.02386C0.671844 1.50109 0.854922 1.04367 1.22108 0.651592C1.58723 0.259515 2.01441 0.0634766 2.50262 0.0634766H20.8104C21.2986 0.0634766 21.7258 0.259515 22.0919 0.651592C22.4581 1.04367 22.6412 1.50109 22.6412 2.02386V3.98425H24.472V5.94463H22.6412V10.8456H24.472V12.806H22.6412V17.7069H24.472V19.6673H22.6412V21.6277C22.6412 22.1505 22.4581 22.6079 22.0919 23C21.7258 23.3921 21.2986 23.5881 20.8104 23.5881H2.50262ZM2.50262 21.6277H20.8104V2.02386H2.50262V21.6277ZM2.50262 2.02386V21.6277V2.02386Z" fill="#616161"/>
</svg>
