<svg width="220" height="14" viewBox="0 0 220 14" fill="none" xmlns="http://www.w3.org/2000/svg">
<circle cx="4" cy="4" r="4" transform="matrix(1 0 0 -1 197 11)" fill="white"/>
<circle cx="7" cy="7" r="7" transform="matrix(1 0 0 -1 194 14)" fill="white" fill-opacity="0.5"/>
<line x1="220" y1="7.5" x2="203" y2="7.5" stroke="white" stroke-dasharray="2 2"/>
<circle cx="7" cy="7" r="7" transform="matrix(1 0 0 -1 97 14)" fill="white" fill-opacity="0.5"/>
<circle cx="4" cy="4" r="4" transform="matrix(1 0 0 -1 100 11)" fill="white"/>
<line x1="201" y1="7.5" x2="7" y2="7.50002" stroke="white"/>
<circle cx="7" cy="7" r="7" transform="matrix(1 0 0 -1 0 14)" fill="white" fill-opacity="0.5"/>
<circle cx="4" cy="4" r="4" transform="matrix(1 0 0 -1 3 11)" fill="white"/>
</svg>
